<?xml version="1.0" encoding="UTF-8"?>
<svg width="800" height="600" viewBox="0 0 800 600" xmlns="http://www.w3.org/2000/svg">
  <defs>
    <linearGradient id="bgGrad2" x1="0%" y1="0%" x2="100%" y2="100%">
      <stop offset="0%" style="stop-color:#667eea;stop-opacity:1" />
      <stop offset="100%" style="stop-color:#764ba2;stop-opacity:1" />
    </linearGradient>
    <radialGradient id="brainGrad" cx="50%" cy="50%" r="50%">
      <stop offset="0%" style="stop-color:#ff6b6b;stop-opacity:1" />
      <stop offset="100%" style="stop-color:#4ecdc4;stop-opacity:1" />
    </radialGradient>
  </defs>
  
  <!-- Background -->
  <rect width="800" height="600" fill="url(#bgGrad2)"/>
  
  <!-- Brain outline -->
  <path d="M300 200 Q250 150 200 200 Q180 250 220 300 Q250 350 300 340 Q350 380 420 360 Q480 380 520 340 Q580 350 600 300 Q620 250 600 200 Q550 150 500 180 Q450 160 400 180 Q350 160 300 200 Z" 
        fill="url(#brainGrad)" opacity="0.8"/>
  
  <!-- Neural network nodes -->
  <circle cx="320" cy="220" r="8" fill="#fff">
    <animate attributeName="r" values="8;12;8" dur="2s" repeatCount="indefinite"/>
  </circle>
  <circle cx="380" cy="200" r="6" fill="#fff">
    <animate attributeName="r" values="6;10;6" dur="2.5s" repeatCount="indefinite"/>
  </circle>
  <circle cx="450" cy="230" r="7" fill="#fff">
    <animate attributeName="r" values="7;11;7" dur="3s" repeatCount="indefinite"/>
  </circle>
  <circle cx="500" cy="280" r="6" fill="#fff">
    <animate attributeName="r" values="6;9;6" dur="2.2s" repeatCount="indefinite"/>
  </circle>
  <circle cx="420" cy="310" r="8" fill="#fff">
    <animate attributeName="r" values="8;12;8" dur="2.8s" repeatCount="indefinite"/>
  </circle>
  <circle cx="350" cy="290" r="7" fill="#fff">
    <animate attributeName="r" values="7;10;7" dur="2.3s" repeatCount="indefinite"/>
  </circle>
  
  <!-- Neural connections -->
  <line x1="320" y1="220" x2="380" y2="200" stroke="#fff" stroke-width="2" opacity="0.6">
    <animate attributeName="opacity" values="0.6;1;0.6" dur="1.5s" repeatCount="indefinite"/>
  </line>
  <line x1="380" y1="200" x2="450" y2="230" stroke="#fff" stroke-width="2" opacity="0.6">
    <animate attributeName="opacity" values="0.6;1;0.6" dur="1.8s" repeatCount="indefinite"/>
  </line>
  <line x1="450" y1="230" x2="500" y2="280" stroke="#fff" stroke-width="2" opacity="0.6">
    <animate attributeName="opacity" values="0.6;1;0.6" dur="2.1s" repeatCount="indefinite"/>
  </line>
  <line x1="500" y1="280" x2="420" y2="310" stroke="#fff" stroke-width="2" opacity="0.6">
    <animate attributeName="opacity" values="0.6;1;0.6" dur="1.7s" repeatCount="indefinite"/>
  </line>
  <line x1="420" y1="310" x2="350" y2="290" stroke="#fff" stroke-width="2" opacity="0.6">
    <animate attributeName="opacity" values="0.6;1;0.6" dur="2.4s" repeatCount="indefinite"/>
  </line>
  <line x1="350" y1="290" x2="320" y2="220" stroke="#fff" stroke-width="2" opacity="0.6">
    <animate attributeName="opacity" values="0.6;1;0.6" dur="1.9s" repeatCount="indefinite"/>
  </line>
  
  <!-- Data streams -->
  <rect x="100" y="400" width="600" height="4" fill="#3498db" opacity="0.7">
    <animate attributeName="opacity" values="0.7;1;0.7" dur="1s" repeatCount="indefinite"/>
  </rect>
  <rect x="150" y="420" width="500" height="3" fill="#e74c3c" opacity="0.6">
    <animate attributeName="opacity" values="0.6;0.9;0.6" dur="1.2s" repeatCount="indefinite"/>
  </rect>
  <rect x="200" y="440" width="400" height="3" fill="#2ecc71" opacity="0.8">
    <animate attributeName="opacity" values="0.8;1;0.8" dur="0.8s" repeatCount="indefinite"/>
  </rect>
  
  <!-- Floating particles -->
  <circle cx="150" cy="150" r="4" fill="#f39c12" opacity="0.5">
    <animate attributeName="cy" values="150;130;150" dur="3s" repeatCount="indefinite"/>
  </circle>
  <circle cx="650" cy="180" r="6" fill="#9b59b6" opacity="0.4">
    <animate attributeName="cy" values="180;160;180" dur="4s" repeatCount="indefinite"/>
  </circle>
  <circle cx="700" cy="400" r="5" fill="#1abc9c" opacity="0.6">
    <animate attributeName="cy" values="400;380;400" dur="2.5s" repeatCount="indefinite"/>
  </circle>
</svg>
