<?xml version="1.0" encoding="UTF-8"?>
<svg width="800" height="600" viewBox="0 0 800 600" xmlns="http://www.w3.org/2000/svg">
  <defs>
    <linearGradient id="bgGrad1" x1="0%" y1="0%" x2="100%" y2="100%">
      <stop offset="0%" style="stop-color:#667eea;stop-opacity:1" />
      <stop offset="100%" style="stop-color:#764ba2;stop-opacity:1" />
    </linearGradient>
    <linearGradient id="screenGrad" x1="0%" y1="0%" x2="100%" y2="100%">
      <stop offset="0%" style="stop-color:#1a1a2e;stop-opacity:1" />
      <stop offset="100%" style="stop-color:#16213e;stop-opacity:1" />
    </linearGradient>
  </defs>
  
  <!-- Background -->
  <rect width="800" height="600" fill="url(#bgGrad1)"/>
  
  <!-- Laptop base -->
  <rect x="150" y="350" width="500" height="200" rx="20" fill="#2c3e50"/>
  <rect x="160" y="360" width="480" height="180" rx="15" fill="#34495e"/>
  
  <!-- Screen -->
  <rect x="200" y="150" width="400" height="250" rx="10" fill="#1a1a2e"/>
  <rect x="210" y="160" width="380" height="230" rx="5" fill="url(#screenGrad)"/>
  
  <!-- Code lines -->
  <rect x="230" y="180" width="60" height="4" fill="#e74c3c"/>
  <rect x="300" y="180" width="40" height="4" fill="#f39c12"/>
  <rect x="350" y="180" width="80" height="4" fill="#2ecc71"/>
  
  <rect x="230" y="200" width="100" height="4" fill="#3498db"/>
  <rect x="340" y="200" width="60" height="4" fill="#9b59b6"/>
  
  <rect x="250" y="220" width="80" height="4" fill="#e67e22"/>
  <rect x="340" y="220" width="50" height="4" fill="#1abc9c"/>
  
  <rect x="230" y="240" width="120" height="4" fill="#f1c40f"/>
  
  <rect x="250" y="260" width="90" height="4" fill="#e74c3c"/>
  <rect x="350" y="260" width="70" height="4" fill="#2ecc71"/>
  
  <!-- Cursor -->
  <rect x="430" y="258" width="2" height="8" fill="#ecf0f1">
    <animate attributeName="opacity" values="1;0;1" dur="1s" repeatCount="indefinite"/>
  </rect>
  
  <!-- Floating elements -->
  <circle cx="100" cy="100" r="30" fill="#3498db" opacity="0.3">
    <animate attributeName="cy" values="100;80;100" dur="3s" repeatCount="indefinite"/>
  </circle>
  
  <rect x="680" y="120" width="40" height="40" fill="#e74c3c" opacity="0.3" transform="rotate(45 700 140)">
    <animateTransform attributeName="transform" type="rotate" values="45 700 140;90 700 140;45 700 140" dur="4s" repeatCount="indefinite"/>
  </rect>
  
  <polygon points="650,500 680,460 710,500" fill="#2ecc71" opacity="0.3">
    <animate attributeName="opacity" values="0.3;0.6;0.3" dur="2s" repeatCount="indefinite"/>
  </polygon>
</svg>
